<?xml version="1.0" encoding="utf-8"?>
<!-- Generator: Adobe Illustrator 27.5.0, SVG Export Plug-In . SVG Version: 6.00 Build 0)  -->
<svg version="1.1" id="Laag_1" xmlns="http://www.w3.org/2000/svg" xmlns:xlink="http://www.w3.org/1999/xlink" x="0px" y="0px"
	 viewBox="0 0 200 200" style="enable-background:new 0 0 200 200;" xml:space="preserve">
<style type="text/css">
	.st0{clip-path:url(#SVGID_00000031922484166205243120000004275873725013802683_);fill:none;stroke:#000000;stroke-width:1.0608;}
	.st1{clip-path:url(#SVGID_00000031922484166205243120000004275873725013802683_);fill:#454545;}
	
		.st2{clip-path:url(#SVGID_00000031922484166205243120000004275873725013802683_);fill:none;stroke:#000000;stroke-width:0.9451;stroke-miterlimit:10;}
	.st3{clip-path:url(#SVGID_00000031922484166205243120000004275873725013802683_);fill:#8A8A8A;}
	
		.st4{clip-path:url(#SVGID_00000031922484166205243120000004275873725013802683_);fill:none;stroke:#000000;stroke-width:1.0173;stroke-miterlimit:10;}
	.st5{clip-path:url(#SVGID_00000031922484166205243120000004275873725013802683_);fill:#E5EBC8;}
	.st6{clip-path:url(#SVGID_00000031922484166205243120000004275873725013802683_);fill:#292E3B;}
	.st7{clip-path:url(#SVGID_00000031922484166205243120000004275873725013802683_);fill:#383838;}
	.st8{fill:none;stroke:#000000;stroke-width:0.9451;stroke-miterlimit:10;}
	.st9{clip-path:url(#SVGID_00000021090072849991515760000011800102503105252016_);fill:#383838;}
	
		.st10{clip-path:url(#SVGID_00000021090072849991515760000011800102503105252016_);fill:none;stroke:#000000;stroke-width:0.9451;stroke-miterlimit:10;}
	
		.st11{clip-path:url(#SVGID_00000015351383839338813800000000193205473087376525_);fill:none;stroke:#000000;stroke-width:0.4307;stroke-miterlimit:10;}
	.st12{fill:#FFFFFF;}
	.st13{font-family:'MyriadPro-Regular';}
	.st14{font-size:5.0857px;}
	
		.st15{clip-path:url(#SVGID_00000166649649930353778750000002152452704646793348_);fill:none;stroke:#000000;stroke-width:1.1096;stroke-miterlimit:10;}
	.st16{fill:none;stroke:#000000;stroke-width:0.4805;stroke-miterlimit:10;}
	.st17{font-size:9.1542px;}
	.st18{clip-path:url(#SVGID_00000127751904355877858440000005414991250441723020_);}
	.st19{fill:none;stroke:#FFFFFF;stroke-width:0.4874;stroke-miterlimit:10;}
	
		.st20{clip-path:url(#SVGID_00000127751904355877858440000005414991250441723020_);fill:none;stroke:#FFFFFF;stroke-width:0.5134;stroke-miterlimit:10;}
	
		.st21{clip-path:url(#SVGID_00000127751904355877858440000005414991250441723020_);fill:none;stroke:#FFFFFF;stroke-width:0.7367;stroke-miterlimit:10;}
	.st22{fill:none;stroke:#FFFFFF;stroke-width:0.5527;stroke-miterlimit:10;}
</style>
<g>
	<defs>
		<rect id="SVGID_1_" x="-12.94" y="-19.69" width="224.94" height="241.32"/>
	</defs>
	<clipPath id="SVGID_00000071556848520005424850000000681587969413415819_">
		<use xlink:href="#SVGID_1_"  style="overflow:visible;"/>
	</clipPath>
	
		<rect x="-12.4" y="-19.16" style="clip-path:url(#SVGID_00000071556848520005424850000000681587969413415819_);fill:none;stroke:#000000;stroke-width:1.0608;" width="223.87" height="240.26"/>
	<path style="clip-path:url(#SVGID_00000071556848520005424850000000681587969413415819_);fill:#454545;" d="M153.43,36.16
		c0,0,14.75,0.51,14.75,14.75c0,14.24,6.1,89.51-12.21,110.87c-18.31,21.36-7.12,19.33-32.55,19.33c-25.43,0-73.23-2.03-78.32-8.14
		c-5.09-6.1-12.71-31.02-12.71-31.02l69.67-102.22l50.29-3.95L153.43,36.16z"/>
	
		<path style="clip-path:url(#SVGID_00000071556848520005424850000000681587969413415819_);fill:none;stroke:#000000;stroke-width:0.9451;stroke-miterlimit:10;" d="
		M153.43,36.16c0,0,14.75,0.51,14.75,14.75c0,14.24,6.1,89.51-12.21,110.87c-18.31,21.36-7.12,19.33-32.55,19.33
		c-25.43,0-73.23-2.03-78.32-8.14c-5.09-6.1-12.71-31.02-12.71-31.02l69.67-102.22l50.29-3.95L153.43,36.16z"/>
	<path style="clip-path:url(#SVGID_00000071556848520005424850000000681587969413415819_);fill:#8A8A8A;" d="M60.84,32.4
		c58.56-9.85,92.59,3.76,92.59,3.76c15.26,67.13-12.21,109.85-12.21,109.85c-50.86,7.12-108.83-4.07-108.83-4.07
		S19.83,103.26,51.63,36.88c0.38-0.8,1.01-1.46,1.79-1.9C55.72,33.71,58.24,32.83,60.84,32.4"/>
	
		<path style="clip-path:url(#SVGID_00000071556848520005424850000000681587969413415819_);fill:none;stroke:#000000;stroke-width:1.0173;stroke-miterlimit:10;" d="
		M60.84,32.4c58.56-9.85,92.59,3.76,92.59,3.76c15.26,67.13-12.21,109.85-12.21,109.85c-50.86,7.12-108.83-4.07-108.83-4.07
		S19.83,103.26,51.63,36.88c0.38-0.8,1.01-1.46,1.79-1.9C55.72,33.71,58.24,32.83,60.84,32.4z"/>
	<path style="clip-path:url(#SVGID_00000071556848520005424850000000681587969413415819_);fill:#E5EBC8;" d="M62.8,36.43
		c54.4-9.15,86.01,3.49,86.01,3.49c14.17,62.36-11.34,102.05-11.34,102.05c-47.24,6.61-101.1-3.78-101.1-3.78
		S24.7,102.26,54.24,40.6c0.36-0.74,0.94-1.36,1.66-1.76C58.04,37.65,60.38,36.84,62.8,36.43"/>
	
		<path style="clip-path:url(#SVGID_00000071556848520005424850000000681587969413415819_);fill:none;stroke:#000000;stroke-width:0.9451;stroke-miterlimit:10;" d="
		M62.8,36.43c54.4-9.15,86.01,3.49,86.01,3.49c14.17,62.36-11.34,102.05-11.34,102.05c-47.24,6.61-101.1-3.78-101.1-3.78
		S24.7,102.26,54.24,40.6c0.36-0.74,0.94-1.36,1.66-1.76C58.04,37.65,60.38,36.84,62.8,36.43z"/>
	<path style="clip-path:url(#SVGID_00000071556848520005424850000000681587969413415819_);fill:#292E3B;" d="M52.23,97.69
		l-9.53,41.55c0,0,51.53,8.63,89.02,3.38l0.87-43.91L52.23,97.69z"/>
	
		<path style="clip-path:url(#SVGID_00000071556848520005424850000000681587969413415819_);fill:none;stroke:#000000;stroke-width:0.9451;stroke-miterlimit:10;" d="
		M52.23,97.69l-9.53,41.55c0,0,51.53,8.63,89.02,3.38l0.87-43.91L52.23,97.69z"/>
	<path style="clip-path:url(#SVGID_00000071556848520005424850000000681587969413415819_);fill:#383838;" d="M36.97,90.72
		c0,0,9.15,1.89,13.22,5.96s-4.39,43.08-4.39,43.08l-9.43-1.56C36.36,138.19,30.87,119.05,36.97,90.72"/>
	
		<path style="clip-path:url(#SVGID_00000071556848520005424850000000681587969413415819_);fill:none;stroke:#000000;stroke-width:0.9451;stroke-miterlimit:10;" d="
		M36.97,90.72c0,0,9.15,1.89,13.22,5.96s-4.39,43.08-4.39,43.08l-9.43-1.56C36.36,138.19,30.87,119.05,36.97,90.72z"/>
</g>
<polygon class="st8" points="66.47,44.8 143.55,44.8 132.58,98.71 52.23,97.69 61.69,44.8 "/>
<g>
	<defs>
		<rect id="SVGID_00000057844730182410722790000015652272010701909183_" x="-12.94" y="-19.69" width="224.94" height="241.32"/>
	</defs>
	<clipPath id="SVGID_00000069363697937359411360000004886647870401885834_">
		<use xlink:href="#SVGID_00000057844730182410722790000015652272010701909183_"  style="overflow:visible;"/>
	</clipPath>
	<path style="clip-path:url(#SVGID_00000069363697937359411360000004886647870401885834_);fill:#383838;" d="M126.31,143.22
		l6.27-44.51c0,0,4.97-4.79,19.78-6.46c0,0-4.52,36.98-14.89,49.72L126.31,143.22z"/>
	
		<path style="clip-path:url(#SVGID_00000069363697937359411360000004886647870401885834_);fill:none;stroke:#000000;stroke-width:0.9451;stroke-miterlimit:10;" d="
		M126.31,143.22l6.27-44.51c0,0,4.97-4.79,19.78-6.46c0,0-4.52,36.98-14.89,49.72L126.31,143.22z"/>
</g>
<line class="st8" x1="50.19" y1="118.04" x2="33.92" y2="114.99"/>
<line class="st8" x1="129.53" y1="120.07" x2="147.84" y2="116"/>
<g>
	<defs>
		<rect id="SVGID_00000042724917509693645570000016178255621525243830_" x="-12.94" y="-19.69" width="224.94" height="241.32"/>
	</defs>
	<clipPath id="SVGID_00000165213614825940601020000018044755858156319105_">
		<use xlink:href="#SVGID_00000042724917509693645570000016178255621525243830_"  style="overflow:visible;"/>
	</clipPath>
	
		<path style="clip-path:url(#SVGID_00000165213614825940601020000018044755858156319105_);fill:none;stroke:#000000;stroke-width:0.4307;stroke-miterlimit:10;" d="
		M133.64,126.69l-1.36-1.36 M132.5,129.06h-1.45 M133.32,131l-1.24,1.24 M135.58,132.19v1.62 M137.95,131l1.18,1.18 M138.59,129.06
		h1.5 M137.84,126.64l1.21-1.21 M134.5,127.06v-1.34h2.15v1.34 M137.84,129.06c0,1.25-1.01,2.26-2.26,2.26
		c-1.25,0-2.26-1.01-2.26-2.26c0-1.25,1.01-2.26,2.26-2.26C136.83,126.8,137.84,127.81,137.84,129.06z"/>
</g>
<rect x="137.86" y="105.94" transform="matrix(0.0117 -0.9999 0.9999 0.0117 32.7238 246.12)" class="st12" width="6.02" height="1.13"/>
<rect x="140.45" y="108.21" transform="matrix(0.0118 -0.9999 0.9999 0.0118 29.2831 249.5543)" class="st12" width="0.89" height="3.51"/>
<rect x="139.5" y="103.2" transform="matrix(0.0118 -0.9999 0.9999 0.0118 34.3845 242.31)" class="st12" width="0.56" height="1.13"/>
<rect x="141.03" y="102.22" transform="matrix(0.0121 -0.9999 0.9999 0.0121 37.0583 242.8363)" class="st12" width="0.78" height="0.88"/>
<text transform="matrix(0.9879 0.155 -0.155 0.9879 36.6301 104.91)" class="st12 st13 st14">R</text>
<text transform="matrix(0.9879 0.155 -0.155 0.9879 39.3336 105.3331)" class="st12 st13 st14">E</text>
<text transform="matrix(0.9879 0.155 -0.155 0.9879 41.8051 105.7219)" class="st12 st13 st14">S</text>
<text transform="matrix(0.9879 0.155 -0.155 0.9879 44.2819 106.1154)" class="st12 st13 st14">ET</text>
<g>
	<defs>
		<rect id="SVGID_00000019651813137672140760000013263881853091573948_" x="-12.94" y="-19.69" width="224.94" height="241.32"/>
	</defs>
	<clipPath id="SVGID_00000008119961411236907570000003114615248724200838_">
		<use xlink:href="#SVGID_00000019651813137672140760000013263881853091573948_"  style="overflow:visible;"/>
	</clipPath>
	
		<path style="clip-path:url(#SVGID_00000008119961411236907570000003114615248724200838_);fill:none;stroke:#000000;stroke-width:1.1096;stroke-miterlimit:10;" d="
		M41.35,124.25c1.29,0.36,2.23,1.54,2.23,2.94c0,1.69-1.37,3.05-3.05,3.05c-1.69,0-3.05-1.37-3.05-3.05c0-0.95,0.43-1.8,1.11-2.35
		c0.29-0.24,0.62-0.42,0.98-0.54"/>
</g>
<rect x="40.16" y="123.12" width="0.55" height="3.7"/>
<rect x="40.16" y="123.12" class="st16" width="0.55" height="3.7"/>
<text transform="matrix(1 0 0 1 80.748 167.1768)" class="st12 st13 st17">BOSCH</text>
<g>
	<defs>
		<rect id="SVGID_00000152260994844759912530000015084814728748856483_" x="-12.94" y="-19.69" width="224.94" height="241.32"/>
	</defs>
	<clipPath id="SVGID_00000032618266699888633580000017548358751941953175_">
		<use xlink:href="#SVGID_00000152260994844759912530000015084814728748856483_"  style="overflow:visible;"/>
	</clipPath>
	<g style="clip-path:url(#SVGID_00000032618266699888633580000017548358751941953175_);">
		<text transform="matrix(1 0 0 1 80.748 167.1768)" class="st19 st13 st17">BOSCH</text>
	</g>
	
		<path style="clip-path:url(#SVGID_00000032618266699888633580000017548358751941953175_);fill:none;stroke:#FFFFFF;stroke-width:0.5134;stroke-miterlimit:10;" d="
		M78.84,163.71c-0.23,3.11-2.95,5.44-6.06,5.21c-3.11-0.23-5.44-2.95-5.21-6.06c0.23-3.11,2.95-5.44,6.06-5.21
		C76.74,157.89,79.08,160.6,78.84,163.71z"/>
	
		<path style="clip-path:url(#SVGID_00000032618266699888633580000017548358751941953175_);fill:none;stroke:#FFFFFF;stroke-width:0.7367;stroke-miterlimit:10;" d="
		M76.13,160.18c0.89,0.85,1.4,2.07,1.3,3.39c-0.1,1.32-0.79,2.45-1.8,3.15L76.13,160.18z M70.39,166.41
		c-0.95-0.85-1.5-2.11-1.4-3.48c0.1-1.32,0.79-2.45,1.79-3.15L70.39,166.41z"/>
</g>
<rect x="71.77" y="160.6" transform="matrix(0.0753 -0.9972 0.9972 0.0753 -95.0181 223.9982)" class="st22" width="2.99" height="5.26"/>
</svg>
