<?xml version="1.0" encoding="utf-8"?>
<!-- Generator: Adobe Illustrator 27.5.0, SVG Export Plug-In . SVG Version: 6.00 Build 0)  -->
<svg version="1.1" id="Laag_1" xmlns="http://www.w3.org/2000/svg" xmlns:xlink="http://www.w3.org/1999/xlink" x="0px" y="0px"
	 viewBox="0 0 3840 2160" style="enable-background:new 0 0 3840 2160;" xml:space="preserve">
<style type="text/css">
	
		.st0{clip-path:url(#SVGID_00000080917534036556477320000001136627051066110879_);fill:none;stroke:#009663;stroke-width:35.7944;stroke-linecap:round;stroke-miterlimit:10;}
	
		.st1{clip-path:url(#SVGID_00000080917534036556477320000001136627051066110879_);fill:none;stroke:#009663;stroke-width:31.1359;stroke-miterlimit:10;}
	.st2{fill:#00965C;}
	.st3{fill:none;stroke:#009663;stroke-width:10.3928;stroke-miterlimit:10;}
	.st4{clip-path:url(#SVGID_00000133526471866683150630000012060430033130138559_);fill:#00965C;}
	
		.st5{clip-path:url(#SVGID_00000133526471866683150630000012060430033130138559_);fill:none;stroke:#009663;stroke-width:10.3928;stroke-miterlimit:10;}
</style>
<g>
	<defs>
		<rect id="SVGID_1_" x="267.57" y="593" width="3126.24" height="941"/>
	</defs>
	<clipPath id="SVGID_00000036950510963569959400000006320636209787709058_">
		<use xlink:href="#SVGID_1_"  style="overflow:visible;"/>
	</clipPath>
	
		<path style="clip-path:url(#SVGID_00000036950510963569959400000006320636209787709058_);fill:none;stroke:#009663;stroke-width:35.7944;stroke-linecap:round;stroke-miterlimit:10;" d="
		M841.9,610.9c203.83,0,369.07,165.66,369.07,370.01s-165.24,370.01-369.07,370.01s-369.07-165.66-369.07-370.01
		c0-12.63,0.63-25.12,1.86-37.42"/>
	
		<path style="clip-path:url(#SVGID_00000036950510963569959400000006320636209787709058_);fill:none;stroke:#009663;stroke-width:31.1359;stroke-miterlimit:10;" d="
		M1045.77,779.49l-72.23,8.94l33.6,267.49c-51.74,2.04-71.85,46.08-78.74,68.39c-2.34,7.59-9.3,12.72-17.13,12.72H743.75
		c0,0-10.24-75.44-77.24-79.22 M950.26,1136.06c0,31.58,25.21,57.19,56.31,57.19c31.1,0,56.31-25.6,56.31-57.19
		s-25.21-57.19-56.31-57.19C975.47,1078.87,950.26,1104.48,950.26,1136.06z M609.67,1135.79c0,31.58,25.21,57.19,56.31,57.19
		c31.1,0,56.31-25.6,56.31-57.19s-25.21-57.19-56.31-57.19C634.88,1078.6,609.67,1104.21,609.67,1135.79z"/>
</g>
<polygon class="st2" points="505.92,956.88 444.02,949.16 426.02,888.19 534.74,902.98 "/>
<polygon class="st3" points="505.92,956.88 444.02,949.16 426.02,888.19 534.74,902.98 "/>
<rect x="441.77" y="793.29" transform="matrix(0.1237 -0.9923 0.9923 0.1237 -416.903 1226.7664)" class="st2" width="88.77" height="112.3"/>
<rect x="441.77" y="793.29" transform="matrix(0.1237 -0.9923 0.9923 0.1237 -416.903 1226.7664)" class="st3" width="88.77" height="112.3"/>
<g>
	<defs>
		<rect id="SVGID_00000144299134218050276610000002633187227548605314_" x="267.57" y="593" width="3126.24" height="941"/>
	</defs>
	<clipPath id="SVGID_00000029762593705943928660000006426189631371251874_">
		<use xlink:href="#SVGID_00000144299134218050276610000002633187227548605314_"  style="overflow:visible;"/>
	</clipPath>
	<path style="clip-path:url(#SVGID_00000029762593705943928660000006426189631371251874_);fill:#00965C;" d="M520.69,817.53
		l-2.44-0.3c-2.73-0.34-4.69-2.86-4.35-5.6l7.09-53.81c0.34-2.74,2.86-4.7,5.59-4.36l2.44,0.31c2.73,0.34,4.69,2.86,4.35,5.6
		l-7.09,53.81C525.94,815.91,523.43,817.88,520.69,817.53"/>
	
		<path style="clip-path:url(#SVGID_00000029762593705943928660000006426189631371251874_);fill:none;stroke:#009663;stroke-width:10.3928;stroke-miterlimit:10;" d="
		M520.69,817.53l-2.44-0.3c-2.73-0.34-4.69-2.86-4.35-5.6l7.09-53.81c0.34-2.74,2.86-4.7,5.59-4.36l2.44,0.31
		c2.73,0.34,4.69,2.86,4.35,5.6l-7.09,53.81C525.94,815.91,523.43,817.88,520.69,817.53z"/>
	<path style="clip-path:url(#SVGID_00000029762593705943928660000006426189631371251874_);fill:#00965C;" d="M462.91,810.33
		l-2.44-0.3c-2.73-0.34-4.69-2.86-4.35-5.6l7.09-53.81c0.34-2.74,2.85-4.7,5.59-4.36l2.44,0.31c2.73,0.34,4.69,2.86,4.35,5.6
		l-7.09,53.81C468.16,808.71,465.64,810.67,462.91,810.33"/>
	
		<path style="clip-path:url(#SVGID_00000029762593705943928660000006426189631371251874_);fill:none;stroke:#009663;stroke-width:10.3928;stroke-miterlimit:10;" d="
		M462.91,810.33l-2.44-0.3c-2.73-0.34-4.69-2.86-4.35-5.6l7.09-53.81c0.34-2.74,2.85-4.7,5.59-4.36l2.44,0.31
		c2.73,0.34,4.69,2.86,4.35,5.6l-7.09,53.81C468.16,808.71,465.64,810.67,462.91,810.33z"/>
	<path style="clip-path:url(#SVGID_00000029762593705943928660000006426189631371251874_);fill:#00965C;" d="M1017.85,1143.28
		l-21.87,3c-0.3,0.04-0.57-0.17-0.61-0.47l-33.39-244.63c-0.04-0.3,0.17-0.57,0.47-0.61l21.87-3c0.3-0.04,0.58,0.17,0.61,0.47
		l33.39,244.63C1018.36,1142.96,1018.15,1143.24,1017.85,1143.28"/>
	
		<path style="clip-path:url(#SVGID_00000029762593705943928660000006426189631371251874_);fill:none;stroke:#009663;stroke-width:10.3928;stroke-miterlimit:10;" d="
		M1017.85,1143.28l-21.87,3c-0.3,0.04-0.57-0.17-0.61-0.47l-33.39-244.63c-0.04-0.3,0.17-0.57,0.47-0.61l21.87-3
		c0.3-0.04,0.58,0.17,0.61,0.47l33.39,244.63C1018.36,1142.96,1018.15,1143.24,1017.85,1143.28z"/>
	<path style="clip-path:url(#SVGID_00000029762593705943928660000006426189631371251874_);fill:#00965C;" d="M904.19,1124.1v22.13
		c0,0.3-0.24,0.55-0.55,0.55H657.37c-0.3,0-0.54-0.24-0.54-0.55v-22.13c0-0.3,0.24-0.55,0.54-0.55h246.28
		C903.95,1123.55,904.19,1123.8,904.19,1124.1"/>
	
		<path style="clip-path:url(#SVGID_00000029762593705943928660000006426189631371251874_);fill:none;stroke:#009663;stroke-width:10.3928;stroke-miterlimit:10;" d="
		M904.19,1124.1v22.13c0,0.3-0.24,0.55-0.55,0.55H657.37c-0.3,0-0.54-0.24-0.54-0.55v-22.13c0-0.3,0.24-0.55,0.54-0.55h246.28
		C903.95,1123.55,904.19,1123.8,904.19,1124.1z"/>
	<path style="clip-path:url(#SVGID_00000029762593705943928660000006426189631371251874_);fill:#00965C;" d="M1009.49,1136.63
		l-7.95,1.09c-0.11,0.01-0.21-0.06-0.22-0.17l-5.17-37.9c-0.02-0.11,0.06-0.21,0.17-0.22l7.95-1.09c0.11-0.02,0.21,0.06,0.22,0.17
		l5.17,37.9C1009.68,1136.52,1009.6,1136.62,1009.49,1136.63"/>
	
		<path style="clip-path:url(#SVGID_00000029762593705943928660000006426189631371251874_);fill:none;stroke:#009663;stroke-width:10.3928;stroke-miterlimit:10;" d="
		M1009.49,1136.63l-7.95,1.09c-0.11,0.01-0.21-0.06-0.22-0.17l-5.17-37.9c-0.02-0.11,0.06-0.21,0.17-0.22l7.95-1.09
		c0.11-0.02,0.21,0.06,0.22,0.17l5.17,37.9C1009.68,1136.52,1009.6,1136.62,1009.49,1136.63z"/>
	<path style="clip-path:url(#SVGID_00000029762593705943928660000006426189631371251874_);fill:#00965C;" d="M704.07,1130.86v8.05
		c0,0.11-0.09,0.2-0.2,0.2h-38.15c-0.11,0-0.2-0.09-0.2-0.2v-8.05c0-0.11,0.09-0.2,0.2-0.2h38.15
		C703.98,1130.66,704.07,1130.75,704.07,1130.86"/>
	
		<path style="clip-path:url(#SVGID_00000029762593705943928660000006426189631371251874_);fill:none;stroke:#009663;stroke-width:10.3928;stroke-miterlimit:10;" d="
		M704.07,1130.86v8.05c0,0.11-0.09,0.2-0.2,0.2h-38.15c-0.11,0-0.2-0.09-0.2-0.2v-8.05c0-0.11,0.09-0.2,0.2-0.2h38.15
		C703.98,1130.66,704.07,1130.75,704.07,1130.86z"/>
	<path style="clip-path:url(#SVGID_00000029762593705943928660000006426189631371251874_);fill:#00965C;" d="M1489.43,1001.76
		c-11.09,0-17.42-5.29-17.42-14.29c0-15.88,10.03-26.47,25.87-26.47h73.39c17.42,0,25.87,6.35,25.87,19.59
		c0,25.94-16.9,76.23-36.43,108.52c-30.1,48.7-82.9,77.28-144.14,77.28c-45.94,0-78.14-13.76-100.32-41.81
		c-18.48-24.35-28.51-55.58-28.51-90.52c0-51.87,20.06-110.63,51.74-152.98c35.91-47.64,89.76-74.11,152.06-74.11
		c39.07,0,74.98,12.17,95.04,31.23c8.97,9,13.73,16.94,13.73,23.29c0,12.18-12.14,23.29-24.82,23.29c-6.86,0-12.67-3.18-23.23-12.18
		c-22.71-20.11-42.24-28.06-71.28-28.06c-38.02,0-71.81,18-100.32,53.46c-29.57,36.53-46.46,85.22-46.46,133.92
		c0,61.93,31.15,96.87,86.59,96.87c33.79,0,62.83-13.24,89.76-41.29c17.95-19.05,31.15-42.35,35.9-65.11l4.22-20.64H1489.43z"/>
	
		<path style="clip-path:url(#SVGID_00000029762593705943928660000006426189631371251874_);fill:none;stroke:#009663;stroke-width:10.3928;stroke-miterlimit:10;" d="
		M1489.43,1001.76c-11.09,0-17.42-5.29-17.42-14.29c0-15.88,10.03-26.47,25.87-26.47h73.39c17.42,0,25.87,6.35,25.87,19.59
		c0,25.94-16.9,76.23-36.43,108.52c-30.1,48.7-82.9,77.28-144.14,77.28c-45.94,0-78.14-13.76-100.32-41.81
		c-18.48-24.35-28.51-55.58-28.51-90.52c0-51.87,20.06-110.63,51.74-152.98c35.91-47.64,89.76-74.11,152.06-74.11
		c39.07,0,74.98,12.17,95.04,31.23c8.97,9,13.73,16.94,13.73,23.29c0,12.18-12.14,23.29-24.82,23.29c-6.86,0-12.67-3.18-23.23-12.18
		c-22.71-20.11-42.24-28.06-71.28-28.06c-38.02,0-71.81,18-100.32,53.46c-29.57,36.53-46.46,85.22-46.46,133.92
		c0,61.93,31.15,96.87,86.59,96.87c33.79,0,62.83-13.24,89.76-41.29c17.95-19.05,31.15-42.35,35.9-65.11l4.22-20.64H1489.43z"/>
	<path style="clip-path:url(#SVGID_00000029762593705943928660000006426189631371251874_);fill:#00965C;" d="M1689.54,941.94
		c20.06-29.11,44.88-45.52,69.69-45.52c11.61,0,19.54,6.88,19.54,17.47c0,15.35-10.56,24.88-32.21,29.11
		c-37.49,6.88-66.53,36-73.92,74.64l-26.4,125.45c-3.17,14.82-13.2,23.29-26.93,23.29c-10.56,0-17.42-6.35-17.42-16.94
		c0-2.11,0-4.23,0.53-6.35l47.52-223.38c3.17-14.82,12.67-23.29,26.93-23.29c10.56,0,17.95,6.88,17.42,16.94
		c0,2.12-0.53,4.23-1.06,6.35l-4.75,22.23H1689.54z"/>
	
		<path style="clip-path:url(#SVGID_00000029762593705943928660000006426189631371251874_);fill:none;stroke:#009663;stroke-width:10.3928;stroke-miterlimit:10;" d="
		M1689.54,941.94c20.06-29.11,44.88-45.52,69.69-45.52c11.61,0,19.54,6.88,19.54,17.47c0,15.35-10.56,24.88-32.21,29.11
		c-37.49,6.88-66.53,36-73.92,74.64l-26.4,125.45c-3.17,14.82-13.2,23.29-26.93,23.29c-10.56,0-17.42-6.35-17.42-16.94
		c0-2.11,0-4.23,0.53-6.35l47.52-223.38c3.17-14.82,12.67-23.29,26.93-23.29c10.56,0,17.95,6.88,17.42,16.94
		c0,2.12-0.53,4.23-1.06,6.35l-4.75,22.23H1689.54z"/>
	<path style="clip-path:url(#SVGID_00000029762593705943928660000006426189631371251874_);fill:#00965C;" d="M1949.32,1015.51
		c2.11-10.58,2.64-15.35,2.64-21.7c0-38.64-20.06-59.81-57.55-59.81c-42.77,0-74.45,29.11-89.23,81.52H1949.32z M1798.31,1048.34
		c-1.05,8.47-2.11,17.47-2.11,22.23c0,36.52,23.76,58.23,63.36,58.23c27.46,0,47.52-6.88,75.51-25.94
		c11.61-7.94,15.84-10.06,20.59-10.06c6.86,0,12.14,6.36,12.14,14.29c0,27-64.94,59.29-119.33,59.29
		c-57.55,0-93.98-37.58-93.98-97.93c0-39.17,14.78-82.58,39.07-114.87c27.46-36.53,67.58-57.17,111.41-57.17
		c52.8,0,89.23,40.76,89.23,99.52c0,38.64-8.45,52.4-32.21,52.4H1798.31z"/>
	
		<path style="clip-path:url(#SVGID_00000029762593705943928660000006426189631371251874_);fill:none;stroke:#009663;stroke-width:10.3928;stroke-miterlimit:10;" d="
		M1949.32,1015.51c2.11-10.58,2.64-15.35,2.64-21.7c0-38.64-20.06-59.81-57.55-59.81c-42.77,0-74.45,29.11-89.23,81.52H1949.32z
		 M1798.31,1048.34c-1.05,8.47-2.11,17.47-2.11,22.23c0,36.52,23.76,58.23,63.36,58.23c27.46,0,47.52-6.88,75.51-25.94
		c11.61-7.94,15.84-10.06,20.59-10.06c6.86,0,12.14,6.36,12.14,14.29c0,27-64.94,59.29-119.33,59.29
		c-57.55,0-93.98-37.58-93.98-97.93c0-39.17,14.78-82.58,39.07-114.87c27.46-36.53,67.58-57.17,111.41-57.17
		c52.8,0,89.23,40.76,89.23,99.52c0,38.64-8.45,52.4-32.21,52.4H1798.31z"/>
	<path style="clip-path:url(#SVGID_00000029762593705943928660000006426189631371251874_);fill:#00965C;" d="M2206.45,1015.51
		c2.11-10.58,2.64-15.35,2.64-21.7c0-38.64-20.06-59.81-57.55-59.81c-42.77,0-74.45,29.11-89.23,81.52H2206.45z M2055.44,1048.34
		c-1.05,8.47-2.11,17.47-2.11,22.23c0,36.52,23.76,58.23,63.36,58.23c27.46,0,47.52-6.88,75.5-25.94
		c11.62-7.94,15.84-10.06,20.59-10.06c6.87,0,12.15,6.36,12.15,14.29c0,27-64.94,59.29-119.33,59.29
		c-57.55,0-93.98-37.58-93.98-97.93c0-39.17,14.78-82.58,39.07-114.87c27.46-36.53,67.58-57.17,111.41-57.17
		c52.8,0,89.23,40.76,89.23,99.52c0,38.64-8.45,52.4-32.21,52.4H2055.44z"/>
	
		<path style="clip-path:url(#SVGID_00000029762593705943928660000006426189631371251874_);fill:none;stroke:#009663;stroke-width:10.3928;stroke-miterlimit:10;" d="
		M2206.45,1015.51c2.11-10.58,2.64-15.35,2.64-21.7c0-38.64-20.06-59.81-57.55-59.81c-42.77,0-74.45,29.11-89.23,81.52H2206.45z
		 M2055.44,1048.34c-1.05,8.47-2.11,17.47-2.11,22.23c0,36.52,23.76,58.23,63.36,58.23c27.46,0,47.52-6.88,75.5-25.94
		c11.62-7.94,15.84-10.06,20.59-10.06c6.87,0,12.15,6.36,12.15,14.29c0,27-64.94,59.29-119.33,59.29
		c-57.55,0-93.98-37.58-93.98-97.93c0-39.17,14.78-82.58,39.07-114.87c27.46-36.53,67.58-57.17,111.41-57.17
		c52.8,0,89.23,40.76,89.23,99.52c0,38.64-8.45,52.4-32.21,52.4H2055.44z"/>
	<path style="clip-path:url(#SVGID_00000029762593705943928660000006426189631371251874_);fill:#00965C;" d="M2353.76,931.35
		c17.95-21.7,48.05-34.94,79.2-34.94c44.35,0,73.92,29.12,73.92,72.52c0,9-1.06,18.53-3.17,27.53l-31.15,146.63
		c-3.17,14.82-12.67,23.29-26.4,23.29c-10.56,0-17.43-6.35-17.43-16.94c0-2.65,0-4.23,0.53-6.35l30.62-143.98
		c1.06-6.35,2.11-13.24,2.11-18.53c0-28.59-19.01-46.58-49.1-46.58c-34.85,0-66.53,27.52-74.97,65.11l-30.1,143.98
		c-3.17,14.82-13.2,23.29-26.93,23.29c-10.56,0-17.42-6.35-17.42-16.94c0-2.11,0-4.23,0.53-6.35l47.52-223.38
		c3.17-14.82,12.67-23.29,26.93-23.29c10.56,0,17.95,6.88,17.42,16.94c0,2.12-0.53,4.23-1.05,6.35l-2.11,10.59L2353.76,931.35z"/>
	
		<path style="clip-path:url(#SVGID_00000029762593705943928660000006426189631371251874_);fill:none;stroke:#009663;stroke-width:10.3928;stroke-miterlimit:10;" d="
		M2353.76,931.35c17.95-21.7,48.05-34.94,79.2-34.94c44.35,0,73.92,29.12,73.92,72.52c0,9-1.06,18.53-3.17,27.53l-31.15,146.63
		c-3.17,14.82-12.67,23.29-26.4,23.29c-10.56,0-17.43-6.35-17.43-16.94c0-2.65,0-4.23,0.53-6.35l30.62-143.98
		c1.06-6.35,2.11-13.24,2.11-18.53c0-28.59-19.01-46.58-49.1-46.58c-34.85,0-66.53,27.52-74.97,65.11l-30.1,143.98
		c-3.17,14.82-13.2,23.29-26.93,23.29c-10.56,0-17.42-6.35-17.42-16.94c0-2.11,0-4.23,0.53-6.35l47.52-223.38
		c3.17-14.82,12.67-23.29,26.93-23.29c10.56,0,17.95,6.88,17.42,16.94c0,2.12-0.53,4.23-1.05,6.35l-2.11,10.59L2353.76,931.35z"/>
	<path style="clip-path:url(#SVGID_00000029762593705943928660000006426189631371251874_);fill:#00965C;" d="M2620.93,928.7
		c19.54-22.76,40.65-32.29,71.28-32.29c30.62,0,49.64,13.23,64.41,44.99c26.4-31.76,51.75-44.99,88.18-44.99
		c45.93,0,74.97,28.58,74.97,72.52c0,9-1.06,18.53-3.17,27.53l-30.62,146.63c-3.17,14.82-13.2,23.29-26.93,23.29
		c-10.56,0-17.43-6.35-17.43-16.94c0-2.65,0-4.23,0.53-6.35l31.68-147.69c1.06-6.35,1.58-11.64,1.58-19.05
		c0-27-16.37-42.35-45.41-42.35c-33.79,0-60.72,24.35-68.64,61.4l-31.15,147.69c-3.17,14.82-13.2,23.29-26.93,23.29
		c-10.56,0-17.42-6.35-17.42-16.94c0-2.65,0-4.23,0.53-6.35l31.68-147.69c1.05-6.35,1.58-11.64,1.58-19.59
		c0-26.47-16.37-41.82-45.41-41.82c-33.79,0-60.72,24.35-68.64,61.4l-31.15,147.69c-3.17,14.82-13.2,23.29-26.93,23.29
		c-10.56,0-17.43-6.35-17.43-16.94c0-2.65,0-4.23,0.53-6.35l47.52-223.38c3.17-14.82,12.67-23.29,26.4-23.29
		c11.09,0,18.48,6.88,17.95,16.94c0,2.12-0.53,4.23-1.06,6.35l-1.58,7.94L2620.93,928.7z"/>
	
		<path style="clip-path:url(#SVGID_00000029762593705943928660000006426189631371251874_);fill:none;stroke:#009663;stroke-width:10.3928;stroke-miterlimit:10;" d="
		M2620.93,928.7c19.54-22.76,40.65-32.29,71.28-32.29c30.62,0,49.64,13.23,64.41,44.99c26.4-31.76,51.75-44.99,88.18-44.99
		c45.93,0,74.97,28.58,74.97,72.52c0,9-1.06,18.53-3.17,27.53l-30.62,146.63c-3.17,14.82-13.2,23.29-26.93,23.29
		c-10.56,0-17.43-6.35-17.43-16.94c0-2.65,0-4.23,0.53-6.35l31.68-147.69c1.06-6.35,1.58-11.64,1.58-19.05
		c0-27-16.37-42.35-45.41-42.35c-33.79,0-60.72,24.35-68.64,61.4l-31.15,147.69c-3.17,14.82-13.2,23.29-26.93,23.29
		c-10.56,0-17.42-6.35-17.42-16.94c0-2.65,0-4.23,0.53-6.35l31.68-147.69c1.05-6.35,1.58-11.64,1.58-19.59
		c0-26.47-16.37-41.82-45.41-41.82c-33.79,0-60.72,24.35-68.64,61.4l-31.15,147.69c-3.17,14.82-13.2,23.29-26.93,23.29
		c-10.56,0-17.43-6.35-17.43-16.94c0-2.65,0-4.23,0.53-6.35l47.52-223.38c3.17-14.82,12.67-23.29,26.4-23.29
		c11.09,0,18.48,6.88,17.95,16.94c0,2.12-0.53,4.23-1.06,6.35l-1.58,7.94L2620.93,928.7z"/>
	<path style="clip-path:url(#SVGID_00000029762593705943928660000006426189631371251874_);fill:#00965C;" d="M3057.04,828.13
		c0,17.47-15.31,32.29-32.73,32.29c-12.67,0-21.65-9-21.65-21.17c0-16.94,15.31-32.29,32.74-32.29
		C3048.07,806.96,3057.04,815.95,3057.04,828.13 M2986.29,1143.09c-3.17,14.82-13.2,23.29-26.93,23.29
		c-10.56,0-17.42-6.35-17.42-16.94c0-2.65,0-4.23,0.53-6.35l47.52-223.38c3.17-14.82,12.67-23.29,26.4-23.29
		c11.09,0,18.48,6.88,17.95,17.47c0,1.59-0.53,3.71-1.05,5.82L2986.29,1143.09z"/>
	
		<path style="clip-path:url(#SVGID_00000029762593705943928660000006426189631371251874_);fill:none;stroke:#009663;stroke-width:10.3928;stroke-miterlimit:10;" d="
		M3057.04,828.13c0,17.47-15.31,32.29-32.73,32.29c-12.67,0-21.65-9-21.65-21.17c0-16.94,15.31-32.29,32.74-32.29
		C3048.07,806.96,3057.04,815.95,3057.04,828.13z M2986.29,1143.09c-3.17,14.82-13.2,23.29-26.93,23.29
		c-10.56,0-17.42-6.35-17.42-16.94c0-2.65,0-4.23,0.53-6.35l47.52-223.38c3.17-14.82,12.67-23.29,26.4-23.29
		c11.09,0,18.48,6.88,17.95,17.47c0,1.59-0.53,3.71-1.05,5.82L2986.29,1143.09z"/>
	<path style="clip-path:url(#SVGID_00000029762593705943928660000006426189631371251874_);fill:#00965C;" d="M3087.14,1143.09
		c-3.17,14.82-13.2,23.29-26.93,23.29c-10.56,0-17.42-6.35-17.42-16.94c0-2.65,0-4.23,0.53-6.35l71.81-339.31
		c3.17-14.82,13.2-23.29,26.93-23.29c11.09,0,17.43,6.35,17.43,16.94c0,2.65,0,4.24-0.53,6.35L3087.14,1143.09z"/>
	
		<path style="clip-path:url(#SVGID_00000029762593705943928660000006426189631371251874_);fill:none;stroke:#009663;stroke-width:10.3928;stroke-miterlimit:10;" d="
		M3087.14,1143.09c-3.17,14.82-13.2,23.29-26.93,23.29c-10.56,0-17.42-6.35-17.42-16.94c0-2.65,0-4.23,0.53-6.35l71.81-339.31
		c3.17-14.82,13.2-23.29,26.93-23.29c11.09,0,17.43,6.35,17.43,16.94c0,2.65,0,4.24-0.53,6.35L3087.14,1143.09z"/>
	<path style="clip-path:url(#SVGID_00000029762593705943928660000006426189631371251874_);fill:#00965C;" d="M3343.74,1015.51
		c2.11-10.58,2.64-15.35,2.64-21.7c0-38.64-20.07-59.81-57.55-59.81c-42.77,0-74.45,29.11-89.23,81.52H3343.74z M3192.73,1048.34
		c-1.06,8.47-2.11,17.47-2.11,22.23c0,36.52,23.76,58.23,63.36,58.23c27.46,0,47.52-6.88,75.51-25.94
		c11.61-7.94,15.84-10.06,20.59-10.06c6.86,0,12.15,6.36,12.15,14.29c0,27-64.94,59.29-119.33,59.29
		c-57.55,0-93.98-37.58-93.98-97.93c0-39.17,14.79-82.58,39.07-114.87c27.46-36.53,67.58-57.17,111.4-57.17
		c52.8,0,89.23,40.76,89.23,99.52c0,38.64-8.45,52.4-32.21,52.4H3192.73z"/>
	
		<path style="clip-path:url(#SVGID_00000029762593705943928660000006426189631371251874_);fill:none;stroke:#009663;stroke-width:10.3928;stroke-miterlimit:10;" d="
		M3343.74,1015.51c2.11-10.58,2.64-15.35,2.64-21.7c0-38.64-20.07-59.81-57.55-59.81c-42.77,0-74.45,29.11-89.23,81.52H3343.74z
		 M3192.73,1048.34c-1.06,8.47-2.11,17.47-2.11,22.23c0,36.52,23.76,58.23,63.36,58.23c27.46,0,47.52-6.88,75.51-25.94
		c11.61-7.94,15.84-10.06,20.59-10.06c6.86,0,12.15,6.36,12.15,14.29c0,27-64.94,59.29-119.33,59.29
		c-57.55,0-93.98-37.58-93.98-97.93c0-39.17,14.79-82.58,39.07-114.87c27.46-36.53,67.58-57.17,111.4-57.17
		c52.8,0,89.23,40.76,89.23,99.52c0,38.64-8.45,52.4-32.21,52.4H3192.73z"/>
</g>
</svg>
