<?xml version="1.0" encoding="utf-8"?>
<!-- Generator: Adobe Illustrator 27.5.0, SVG Export Plug-In . SVG Version: 6.00 Build 0)  -->
<svg version="1.1" id="Laag_1" xmlns="http://www.w3.org/2000/svg" xmlns:xlink="http://www.w3.org/1999/xlink" x="0px" y="0px"
	 viewBox="0 0 200 200" style="enable-background:new 0 0 200 200;" xml:space="preserve">
<style type="text/css">
	.st0{clip-path:url(#SVGID_00000073002349646233068620000008795361875137994632_);fill:none;stroke:#010203;stroke-width:0.9959;}
	.st1{clip-path:url(#SVGID_00000073002349646233068620000008795361875137994632_);fill:#FA0F0C;}
	
		.st2{clip-path:url(#SVGID_00000073002349646233068620000008795361875137994632_);fill:none;stroke:#000000;stroke-width:1.2742;stroke-miterlimit:10;}
	.st3{clip-path:url(#SVGID_00000073002349646233068620000008795361875137994632_);fill:#3D3D3D;}
	
		.st4{clip-path:url(#SVGID_00000073002349646233068620000008795361875137994632_);fill:none;stroke:#000000;stroke-width:1.2767;stroke-miterlimit:10;}
	.st5{fill:#7D7D7D;}
	.st6{fill:none;stroke:#000000;stroke-width:1.2742;stroke-miterlimit:10;}
</style>
<g>
	<defs>
		<rect id="SVGID_1_" x="-5.17" y="-12.79" width="211.17" height="226.56"/>
	</defs>
	<clipPath id="SVGID_00000157269692556969679020000010686522731977190561_">
		<use xlink:href="#SVGID_1_"  style="overflow:visible;"/>
	</clipPath>
	
		<rect x="-4.67" y="-12.29" style="clip-path:url(#SVGID_00000157269692556969679020000010686522731977190561_);fill:none;stroke:#010203;stroke-width:0.9959;" width="210.17" height="225.56"/>
	<path style="clip-path:url(#SVGID_00000157269692556969679020000010686522731977190561_);fill:#FA0F0C;" d="M69.87,113.68H54.38
		c0,0-18.92-59.89,33.33-67.54c0.82-0.12,1.62-0.23,2.42-0.32c31.82-3.83,59.66,21.55,59.66,53.6v14.26H96.84
		c0,0-1.48-15.29-14.23-14.02C74.9,100.43,71.14,97.11,69.87,113.68"/>
	
		<path style="clip-path:url(#SVGID_00000157269692556969679020000010686522731977190561_);fill:none;stroke:#000000;stroke-width:1.2742;stroke-miterlimit:10;" d="
		M69.87,113.68H54.38c0,0-18.92-59.89,33.33-67.54c0.82-0.12,1.62-0.23,2.42-0.32c31.82-3.83,59.66,21.55,59.66,53.6v14.26H96.84
		c0,0-1.48-15.29-14.23-14.02C74.9,100.43,71.14,97.11,69.87,113.68z"/>
	<path style="clip-path:url(#SVGID_00000157269692556969679020000010686522731977190561_);fill:#3D3D3D;" d="M98.46,165.95
		l-36.15-51.63h2.88l34.59,50.37l27.22-51.01h2.13l-28.06,53.53c0,0-3.78,1.26-3.83,0C97.19,165.95,98.46,165.95,98.46,165.95"/>
	
		<path style="clip-path:url(#SVGID_00000157269692556969679020000010686522731977190561_);fill:none;stroke:#000000;stroke-width:1.2767;stroke-miterlimit:10;" d="
		M98.46,165.95l-36.15-51.63h2.88l34.59,50.37l27.22-51.01h2.13l-28.06,53.53c0,0-3.78,1.26-3.83,0
		C97.19,165.95,98.46,165.95,98.46,165.95z"/>
</g>
<polygon class="st5" points="95.35,163.38 104.51,163.38 104.51,170.43 96.63,169.75 "/>
<polygon class="st6" points="95.35,163.38 104.51,163.38 104.51,170.43 96.63,169.75 "/>
</svg>
