<?xml version="1.0" encoding="utf-8"?>
<!-- Generator: Adobe Illustrator 27.5.0, SVG Export Plug-In . SVG Version: 6.00 Build 0)  -->
<svg version="1.1" id="Laag_1" xmlns="http://www.w3.org/2000/svg" xmlns:xlink="http://www.w3.org/1999/xlink" x="0px" y="0px"
	 viewBox="0 0 200 200" style="enable-background:new 0 0 200 200;" xml:space="preserve">
<style type="text/css">
	.st0{clip-path:url(#SVGID_00000003786168260909728450000005880152411514463886_);fill:none;stroke:#010203;stroke-width:0.9904;}
	.st1{fill:#858585;}
	.st2{fill:none;stroke:#000000;stroke-width:0.5328;stroke-miterlimit:10;}
	.st3{clip-path:url(#SVGID_00000168805641437236621410000001613665391238979724_);fill:#2B2B2B;}
	
		.st4{clip-path:url(#SVGID_00000168805641437236621410000001613665391238979724_);fill:none;stroke:#000000;stroke-width:0.5328;stroke-miterlimit:10;}
	.st5{clip-path:url(#SVGID_00000168805641437236621410000001613665391238979724_);}
	.st6{clip-path:url(#SVGID_00000168805641437236621410000001613665391238979724_);fill:#6E6E6E;}
	.st7{clip-path:url(#SVGID_00000168805641437236621410000001613665391238979724_);fill:#858585;}
	.st8{clip-path:url(#SVGID_00000168805641437236621410000001613665391238979724_);fill:#3D3D3D;}
	.st9{clip-path:url(#SVGID_00000168805641437236621410000001613665391238979724_);fill:#4A4A4A;}
	.st10{clip-path:url(#SVGID_00000168805641437236621410000001613665391238979724_);fill:#333333;}
</style>
<g>
	<defs>
		<rect id="SVGID_1_" x="-4.01" y="-6.84" width="210.01" height="225.31"/>
	</defs>
	<clipPath id="SVGID_00000120520358612243989640000003850974508951463042_">
		<use xlink:href="#SVGID_1_"  style="overflow:visible;"/>
	</clipPath>
	
		<rect x="-3.52" y="-6.35" style="clip-path:url(#SVGID_00000120520358612243989640000003850974508951463042_);fill:none;stroke:#010203;stroke-width:0.9904;" width="209.02" height="224.32"/>
</g>
<polygon class="st1" points="80.19,41.21 86.31,32.8 92.17,33.34 86.84,45.06 "/>
<polygon class="st2" points="80.19,41.21 86.31,32.8 92.17,33.34 86.84,45.06 "/>
<g>
	<defs>
		<rect id="SVGID_00000146496911110499157200000006912107953874613397_" x="-4.01" y="-6.84" width="210.01" height="225.31"/>
	</defs>
	<clipPath id="SVGID_00000057839353943157012460000011811199347734962084_">
		<use xlink:href="#SVGID_00000146496911110499157200000006912107953874613397_"  style="overflow:visible;"/>
	</clipPath>
	<path style="clip-path:url(#SVGID_00000057839353943157012460000011811199347734962084_);fill:#2B2B2B;" d="M68.55,218.2
		L97.23,37.86L71.66,32h-1.65c-3.01,0-5.84-1.45-7.6-3.9l-0.07-0.1l-23.07-5.01c-1.05-0.23-1.98-0.85-2.56-1.75
		c-1.36-2.09-3.03-6.19,0.93-10.32c0.98-1.02,2.43-1.43,3.82-1.14c5.96,1.27,23.01,4.9,23.01,4.9s5.33-4.79,17.05,0l1.6,2.13
		l34.37,6.71c0,0,7.19-4.58,17.85,1.81c9.07,5.44,35.12,8.95,42.68,9.88c1.53,0.19,2.95,0.88,4.01,2c2.97,3.11,7.23,9.8-3.67,15.24
		c-1.51,0.75-3.24,0.96-4.89,0.59l-40.26-9.06c0,0,1.06,3.95-15.72-0.42L87.37,217.7L68.55,218.2z"/>
	
		<path style="clip-path:url(#SVGID_00000057839353943157012460000011811199347734962084_);fill:none;stroke:#000000;stroke-width:0.5328;stroke-miterlimit:10;" d="
		M68.55,218.2L97.23,37.86L71.66,32h-1.65c-3.01,0-5.84-1.45-7.6-3.9l-0.07-0.1l-23.07-5.01c-1.05-0.23-1.98-0.85-2.56-1.75
		c-1.36-2.09-3.03-6.19,0.93-10.32c0.98-1.02,2.43-1.43,3.82-1.14c5.96,1.27,23.01,4.9,23.01,4.9s5.33-4.79,17.05,0l1.6,2.13
		l34.37,6.71c0,0,7.19-4.58,17.85,1.81c9.07,5.44,35.12,8.95,42.68,9.88c1.53,0.19,2.95,0.88,4.01,2c2.97,3.11,7.23,9.8-3.67,15.24
		c-1.51,0.75-3.24,0.96-4.89,0.59l-40.26-9.06c0,0,1.06,3.95-15.72-0.42L87.37,217.7L68.55,218.2z"/>
	<path style="clip-path:url(#SVGID_00000057839353943157012460000011811199347734962084_);" d="M62.33,28.01
		c0,0-2.66-6.39,2.13-13.32c0,0,5.23-4.71,16.73-0.13c0.07,0.03,0.06,0.13-0.02,0.14c-1.99,0.11-12.1,1.43-8.98,17.43
		C72.2,32.13,63.93,33.34,62.33,28.01"/>
	
		<path style="clip-path:url(#SVGID_00000057839353943157012460000011811199347734962084_);fill:none;stroke:#000000;stroke-width:0.5328;stroke-miterlimit:10;" d="
		M62.33,28.01c0,0-2.66-6.39,2.13-13.32c0,0,5.23-4.71,16.73-0.13c0.07,0.03,0.06,0.13-0.02,0.14c-1.99,0.11-12.1,1.43-8.98,17.43
		C72.2,32.13,63.93,33.34,62.33,28.01z"/>
	
		<path style="clip-path:url(#SVGID_00000057839353943157012460000011811199347734962084_);fill:none;stroke:#000000;stroke-width:0.5328;stroke-miterlimit:10;" d="
		M117.48,43.57c0,0-7.72-7.57-3.99-13.43c3.73-5.86,3.99-6.61,3.99-6.61 M133.2,43.99c0,0-11.68,1.31-6.9-11.86
		c0,0,2.11-6.25,9.04-6.78"/>
	<path style="clip-path:url(#SVGID_00000057839353943157012460000011811199347734962084_);" d="M117.44,23.55
		c0,0-0.26,0.74-3.99,6.61c-3.73,5.86,3.99,13.43,3.99,13.43s16.74,4.17,15.72,0.42c0,0-11.68,1.31-6.9-11.86
		c0,0,2.11-6.25,9.04-6.78C135.29,25.36,126.72,19.1,117.44,23.55"/>
	
		<path style="clip-path:url(#SVGID_00000057839353943157012460000011811199347734962084_);fill:none;stroke:#000000;stroke-width:0.5328;stroke-miterlimit:10;" d="
		M117.44,23.55c0,0-0.26,0.74-3.99,6.61c-3.73,5.86,3.99,13.43,3.99,13.43s16.74,4.17,15.72,0.42c0,0-11.68,1.31-6.9-11.86
		c0,0,2.11-6.25,9.04-6.78C135.29,25.36,126.72,19.1,117.44,23.55z"/>
	<path style="clip-path:url(#SVGID_00000057839353943157012460000011811199347734962084_);fill:#6E6E6E;" d="M62.33,28.01
		c0,0-25.07-3.07-25.85-7.13c0,0-4.88-8.18,3.56-11.18l24.43,4.99C64.47,14.69,59.14,20.55,62.33,28.01"/>
	
		<path style="clip-path:url(#SVGID_00000057839353943157012460000011811199347734962084_);fill:none;stroke:#000000;stroke-width:0.5328;stroke-miterlimit:10;" d="
		M62.33,28.01c0,0-25.07-3.07-25.85-7.13c0,0-4.88-8.18,3.56-11.18l24.43,4.99C64.47,14.69,59.14,20.55,62.33,28.01z"/>
	<path style="clip-path:url(#SVGID_00000057839353943157012460000011811199347734962084_);fill:#6E6E6E;" d="M133.16,44.01
		l41.93,9.21c0,0,12.72-2.19,9.93-11.31c-1.94-6.33-8.16-7.58-11.78-7.75c-2.27-0.11-4.53-0.41-6.73-0.96l-31.21-7.84
		c0,0-8.07-0.03-10.14,10.63C125.15,35.99,122.99,44.04,133.16,44.01"/>
	
		<path style="clip-path:url(#SVGID_00000057839353943157012460000011811199347734962084_);fill:none;stroke:#000000;stroke-width:0.5328;stroke-miterlimit:10;" d="
		M133.16,44.01l41.93,9.21c0,0,12.72-2.19,9.93-11.31c-1.94-6.33-8.16-7.58-11.78-7.75c-2.27-0.11-4.53-0.41-6.73-0.96l-31.21-7.84
		c0,0-8.07-0.03-10.14,10.63C125.15,35.99,122.99,44.04,133.16,44.01z"/>
	<path style="clip-path:url(#SVGID_00000057839353943157012460000011811199347734962084_);fill:#858585;" d="M68.99,38.4l3.4-11.18
		c0.21-0.7,0.63-1.32,1.2-1.77l3.87-3.1c0.38-0.3,0.66-0.71,0.82-1.16l0.3-0.86c0.37-1.07,1.17-1.92,2.22-2.34l2.58-1.05
		c0.17-0.07,0.36-0.09,0.55-0.06l7.98,1.29l2.6,0.71c0.14,0.04,0.18,0.22,0.07,0.31l-9.71,8.27c-0.23,0.2-0.45,0.42-0.63,0.67
		l-2.41,3.17c-0.2,0.26-0.34,0.56-0.42,0.88l-2.23,9.06L68.99,38.4z"/>
	
		<path style="clip-path:url(#SVGID_00000057839353943157012460000011811199347734962084_);fill:none;stroke:#000000;stroke-width:0.5328;stroke-miterlimit:10;" d="
		M68.99,38.4l3.4-11.18c0.21-0.7,0.63-1.32,1.2-1.77l3.87-3.1c0.38-0.3,0.66-0.71,0.82-1.16l0.3-0.86c0.37-1.07,1.17-1.92,2.22-2.34
		l2.58-1.05c0.17-0.07,0.36-0.09,0.55-0.06l7.98,1.29l2.6,0.71c0.14,0.04,0.18,0.22,0.07,0.31l-9.71,8.27
		c-0.23,0.2-0.45,0.42-0.63,0.67l-2.41,3.17c-0.2,0.26-0.34,0.56-0.42,0.88l-2.23,9.06L68.99,38.4z"/>
	<path style="clip-path:url(#SVGID_00000057839353943157012460000011811199347734962084_);fill:#858585;" d="M85.77,45.04
		c3.74-9.57,6.93-17.46,8.27-17.51c0.81-0.03,2.32-2.02,3.37-3.57c0.74-1.09,2.06-1.63,3.35-1.37l0.48,0.1c0,0,6.39-2.66,10.12-2.13
		c3.54,0.51,6.13,2.5,6.13,2.5s-9.86,0.17-16.78,11.36c-6.93,11.19-7.46,14.92-7.46,14.92L85.77,45.04z"/>
	
		<path style="clip-path:url(#SVGID_00000057839353943157012460000011811199347734962084_);fill:none;stroke:#000000;stroke-width:0.5328;stroke-miterlimit:10;" d="
		M85.77,45.04c3.74-9.57,6.93-17.46,8.27-17.51c0.81-0.03,2.32-2.02,3.37-3.57c0.74-1.09,2.06-1.63,3.35-1.37l0.48,0.1
		c0,0,6.39-2.66,10.12-2.13c3.54,0.51,6.13,2.5,6.13,2.5s-9.86,0.17-16.78,11.36c-6.93,11.19-7.46,14.92-7.46,14.92L85.77,45.04z"/>
	<path style="clip-path:url(#SVGID_00000057839353943157012460000011811199347734962084_);fill:#858585;" d="M112.43,81.69
		c0,0,4.26-0.4,4.26-3.06c0,0,3.28-0.82,0.61,5.39c-0.41,0.96-0.72,1.96-0.9,2.99l-1.01,5.84l-3.5,1.76L112.43,81.69z"/>
	
		<path style="clip-path:url(#SVGID_00000057839353943157012460000011811199347734962084_);fill:none;stroke:#000000;stroke-width:0.5328;stroke-miterlimit:10;" d="
		M112.43,81.69c0,0,4.26-0.4,4.26-3.06c0,0,3.28-0.82,0.61,5.39c-0.41,0.96-0.72,1.96-0.9,2.99l-1.01,5.84l-3.5,1.76L112.43,81.69z"
		/>
	<path style="clip-path:url(#SVGID_00000057839353943157012460000011811199347734962084_);fill:#858585;" d="M104.43,123.38
		c0,0,12.77-1.75,5.85-5.94c0,0,5.36-1.27,1.79,9.92c-0.45,1.41-0.9,2.83-1.11,4.29c-0.18,1.27-2.21,3.6-14.52,3.98
		C79.38,136.17,104.43,123.38,104.43,123.38"/>
	
		<path style="clip-path:url(#SVGID_00000057839353943157012460000011811199347734962084_);fill:none;stroke:#000000;stroke-width:0.5328;stroke-miterlimit:10;" d="
		M104.43,123.38c0,0,12.77-1.75,5.85-5.94c0,0,5.36-1.27,1.79,9.92c-0.45,1.41-0.9,2.83-1.11,4.29c-0.18,1.27-2.21,3.6-14.52,3.98
		C79.38,136.17,104.43,123.38,104.43,123.38z"/>
	<path style="clip-path:url(#SVGID_00000057839353943157012460000011811199347734962084_);fill:#3D3D3D;" d="M53.81,41.86
		c0,0,10.12-5.86,19.18-3.73c14.61,3.44,34.1,20.78,34.1,20.78s17.58,11.19-3.73,70.87c-21.31,59.68-34.63,50.09-51.15,47.42
		C33.8,174.23,53.81,41.86,53.81,41.86"/>
	
		<path style="clip-path:url(#SVGID_00000057839353943157012460000011811199347734962084_);fill:none;stroke:#000000;stroke-width:0.5328;stroke-miterlimit:10;" d="
		M53.81,41.86c0,0,10.12-5.86,19.18-3.73c14.61,3.44,34.1,20.78,34.1,20.78s17.58,11.19-3.73,70.87
		c-21.31,59.68-34.63,50.09-51.15,47.42C33.8,174.23,53.81,41.86,53.81,41.86z"/>
	<path style="clip-path:url(#SVGID_00000057839353943157012460000011811199347734962084_);fill:#4A4A4A;" d="M50.08,176.66
		c0,0-27.71-8.53-28.24-27.17c-0.53-18.65-3.2-56.48-3.2-56.48s-3.2-16.12,15.72-34.17c9.36-8.93,14.61-13.58,17.53-15.99
		c2.21-1.83,5.06-1.74,7.92-1.54c7.85,0.55,14.88-1.42,22.77,18.13c11.19,27.71-10.66,95.38-10.66,95.38S66.06,184.66,50.08,176.66"
		/>
	
		<path style="clip-path:url(#SVGID_00000057839353943157012460000011811199347734962084_);fill:none;stroke:#000000;stroke-width:0.5328;stroke-miterlimit:10;" d="
		M50.08,176.66c0,0-27.71-8.53-28.24-27.17c-0.53-18.65-3.2-56.48-3.2-56.48s-3.2-16.12,15.72-34.17
		c9.36-8.93,14.61-13.58,17.53-15.99c2.21-1.83,5.06-1.74,7.92-1.54c7.85,0.55,14.88-1.42,22.77,18.13
		c11.19,27.71-10.66,95.38-10.66,95.38S66.06,184.66,50.08,176.66z"/>
	<path style="clip-path:url(#SVGID_00000057839353943157012460000011811199347734962084_);fill:#333333;" d="M54.87,41.33
		c0,0,26.11,5.86,28.77,21.31c4.81,27.93,3.13,34.55-14.42,101.19c0,0-2.1,11.29-13.82,14.19c0,0,12.26,2.37,15.98-6.16
		c3.73-8.52,26.64-55.41,23.98-95.38C92.7,36.53,70.86,36.53,54.87,41.33"/>
	
		<path style="clip-path:url(#SVGID_00000057839353943157012460000011811199347734962084_);fill:none;stroke:#000000;stroke-width:0.5328;stroke-miterlimit:10;" d="
		M54.87,41.33c0,0,26.11,5.86,28.77,21.31c4.81,27.93,3.13,34.55-14.42,101.19c0,0-2.1,11.29-13.82,14.19c0,0,12.26,2.37,15.98-6.16
		c3.73-8.52,26.64-55.41,23.98-95.38C92.7,36.53,70.86,36.53,54.87,41.33z"/>
	<path style="clip-path:url(#SVGID_00000057839353943157012460000011811199347734962084_);fill:#858585;" d="M22.9,73.3
		c0,0,34.1,0,36.23,14.39c2.13,14.39-4.53,88.18-6.66,89.78s-25.04-8.53-29.57-20.52C18.38,144.96,10.65,87.68,22.9,73.3"/>
</g>
</svg>
